<?xml version="1.0" encoding="UTF-8" standalone="no"?>
<svg
   xmlns:dc="http://purl.org/dc/elements/1.1/"
   xmlns:cc="http://creativecommons.org/ns#"
   xmlns:rdf="http://www.w3.org/1999/02/22-rdf-syntax-ns#"
   xmlns:svg="http://www.w3.org/2000/svg"
   xmlns="http://www.w3.org/2000/svg"
   xmlns:sodipodi="http://sodipodi.sourceforge.net/DTD/sodipodi-0.dtd"
   xmlns:inkscape="http://www.inkscape.org/namespaces/inkscape"
   inkscape:version="1.0 (4035a4fb49, 2020-05-01)"
   sodipodi:docname="generate.svg"
   version="1.1"
   width="50"
   viewBox="0 0 49.804688 49.804688"
   height="50"
   enable-background="new 0 0 510 510"
   id="Layer_1">
  <metadata
     id="metadata13">
    <rdf:RDF>
      <cc:Work
         rdf:about="">
        <dc:format>image/svg+xml</dc:format>
        <dc:type
           rdf:resource="http://purl.org/dc/dcmitype/StillImage" />
        <dc:title></dc:title>
      </cc:Work>
    </rdf:RDF>
  </metadata>
  <defs
     id="defs11" />
  <sodipodi:namedview
     inkscape:current-layer="Layer_1"
     inkscape:window-maximized="1"
     inkscape:window-y="-6"
     inkscape:window-x="-6"
     inkscape:cy="214.20408"
     inkscape:cx="256"
     inkscape:zoom="0.95703125"
     showgrid="false"
     id="namedview9"
     inkscape:window-height="658"
     inkscape:window-width="1280"
     inkscape:pageshadow="2"
     inkscape:pageopacity="0"
     guidetolerance="10"
     gridtolerance="10"
     objecttolerance="10"
     borderopacity="1"
     bordercolor="#666666"
     pagecolor="#ffffff" />
  <g
     transform="scale(0.09765625)"
     id="g6">
    <path
       id="path2"
       d="M 510,297.297 V 212.703 L 458.343,202.372 C 453.458,183.418 445.967,165.351 435.985,148.45 L 465.22,104.597 405.403,44.78 361.55,74.015 C 344.649,64.034 326.583,56.542 307.629,51.658 L 297.297,0 h -84.594 l -10.331,51.657 c -18.954,4.885 -37.02,12.376 -53.921,22.357 L 104.598,44.779 44.781,104.596 74.016,148.449 C 64.034,165.35 56.543,183.417 51.658,202.371 L 0,212.703 v 84.594 l 51.657,10.331 c 4.885,18.954 12.376,37.021 22.358,53.922 l -29.235,43.853 59.817,59.817 43.853,-29.235 c 16.901,9.981 34.967,17.473 53.921,22.357 L 212.703,510 h 84.594 l 10.332,-51.657 c 18.954,-4.885 37.02,-12.376 53.921,-22.357 l 43.854,29.235 59.817,-59.817 -29.235,-43.853 c 9.982,-16.901 17.473,-34.968 22.358,-53.922 z m -76.746,-15.245 -2.016,9.716 c -8.479,40.873 -28.241,64.982 -31.079,70.127 l 26.458,39.687 -25.036,25.036 -39.686,-26.457 c -5.175,2.854 -29.277,22.604 -70.127,31.078 l -9.716,2.016 -9.349,46.745 h -35.406 l -9.349,-46.746 -9.716,-2.016 c -40.872,-8.48 -64.983,-28.241 -70.127,-31.078 l -39.686,26.457 -25.036,-25.036 26.458,-39.687 -5.442,-8.294 C 81.408,318.56 78.403,287.772 76.747,282.051 L 30,272.703 v -35.406 l 46.745,-9.349 2.016,-9.716 c 8.481,-40.873 28.242,-64.982 31.08,-70.127 l -26.458,-39.687 25.036,-25.036 39.686,26.457 c 5.175,-2.854 29.277,-22.604 70.127,-31.078 L 227.948,76.745 237.297,30 h 35.406 l 9.349,46.746 9.716,2.016 c 40.872,8.479 64.983,28.241 70.127,31.078 l 39.686,-26.457 25.036,25.036 -26.458,39.687 5.442,8.294 c 22.99,35.038 26.002,65.845 27.653,71.549 L 480,237.297 v 35.406 z" />
    <path
       id="path4"
       d="m 255,105 c -82.71,0 -150,67.29 -150,150 8.24,198.995 291.791,198.938 300,-0.001 C 405,172.29 337.71,105 255,105 Z m 15,184.021 c 10.376,-1.345 20.444,-4.072 30,-8.148 v 85.363 c -9.464,3.843 -19.523,6.516 -30,7.828 z M 217.954,251.463 255,208.859 l 37.046,42.604 c -23.304,11.219 -50.788,11.219 -74.092,0 z M 210,280.873 c 9.556,4.075 19.623,6.803 30,8.148 v 85.044 c -10.477,-1.312 -20.536,-3.985 -30,-7.828 z m 120,67.728 v -99.21 l -75,-86.25 -75,86.25 v 99.21 c -87.494,-70.139 -38.556,-213.041 75.001,-213.6 113.562,0.561 162.491,143.482 74.999,213.6 z" />
  </g>
</svg>
