<?xml version="1.0" encoding="UTF-8" standalone="no"?>
<svg
   xmlns:dc="http://purl.org/dc/elements/1.1/"
   xmlns:cc="http://creativecommons.org/ns#"
   xmlns:rdf="http://www.w3.org/1999/02/22-rdf-syntax-ns#"
   xmlns:svg="http://www.w3.org/2000/svg"
   xmlns="http://www.w3.org/2000/svg"
   xmlns:sodipodi="http://sodipodi.sourceforge.net/DTD/sodipodi-0.dtd"
   xmlns:inkscape="http://www.inkscape.org/namespaces/inkscape"
   inkscape:version="1.0 (4035a4fb49, 2020-05-01)"
   sodipodi:docname="ip.svg"
   id="svg8"
   version="1.1"
   width="25"
   viewBox="-41 0 18.750001 18.750001"
   height="25">
  <metadata
     id="metadata14">
    <rdf:RDF>
      <cc:Work
         rdf:about="">
        <dc:format>image/svg+xml</dc:format>
        <dc:type
           rdf:resource="http://purl.org/dc/dcmitype/StillImage" />
        <dc:title></dc:title>
      </cc:Work>
    </rdf:RDF>
  </metadata>
  <defs
     id="defs12" />
  <sodipodi:namedview
     inkscape:current-layer="svg8"
     inkscape:window-maximized="1"
     inkscape:window-y="-6"
     inkscape:window-x="-6"
     inkscape:cy="11.237203"
     inkscape:cx="25.898852"
     inkscape:zoom="8.1206794"
     units="px"
     showgrid="false"
     id="namedview10"
     inkscape:window-height="658"
     inkscape:window-width="1280"
     inkscape:pageshadow="2"
     inkscape:pageopacity="0"
     guidetolerance="10"
     gridtolerance="10"
     objecttolerance="10"
     borderopacity="1"
     bordercolor="#666666"
     pagecolor="#ffffff" />
  <path
     style="stroke-width:0.0399475"
     id="path2"
     d="M -24.995978,2.3075582 C -26.766599,0.81954005 -29.120903,0 -31.625,0 -34.129267,0 -36.4834,0.81954005 -38.254192,2.3075582 -40.024813,3.7957194 -41,5.7742597 -41,7.8786851 c 0,1.84021 0.771434,3.6310679 2.172169,5.0426959 v 1.47e-4 c 0.356439,0.359058 0.75305,0.693369 1.17928,0.994062 l 5.560725,4.673335 c 0.127834,0.107432 0.29533,0.161076 0.462826,0.161076 0.167496,0 0.334992,-0.05364 0.462656,-0.161076 l 5.560896,-4.673338 c 0.426229,-0.300694 0.822841,-0.635004 1.17911,-0.994206 1.400904,-1.411628 2.172339,-3.2024859 2.172339,-5.0426959 0,-2.1044254 -0.975187,-4.0829657 -2.745979,-5.5711269 z M -26.506334,13.120509 -31.625,17.4222 -36.743665,13.120509 c -0.01396,-0.01159 -0.02843,-0.02289 -0.04358,-0.03347 -0.374653,-0.262499 -0.722922,-0.555182 -1.035445,-0.870037 -1.204812,-1.214219 -1.868498,-2.7550225 -1.868498,-4.3383129 0,-3.7377833 3.618523,-6.7787648 8.066184,-6.7787648 4.447661,0 8.066184,3.0409815 8.066184,6.7787648 0,1.5832904 -0.663685,3.1239509 -1.868668,4.3383129 -0.312352,0.314855 -0.660791,0.607538 -1.035274,0.870037 -0.01515,0.01058 -0.02962,0.02189 -0.04358,0.03347 z m 0,0" />
  <text
     id="text841"
     y="10.436319"
     x="-34.073238"
     style="font-style:normal;font-weight:normal;font-size:6px;line-height:1.25;font-family:sans-serif;fill:#000000;fill-opacity:1;stroke:none;stroke-width:0.75"
     xml:space="preserve"><tspan
       style="font-style:normal;font-variant:normal;font-weight:normal;font-stretch:normal;font-size:6px;font-family:Dubai;-inkscape-font-specification:Dubai;stroke-width:0.75"
       y="10.436319"
       x="-34.073238"
       id="tspan839"
       sodipodi:role="line">IP</tspan></text>
</svg>
